<?xml version="1.0" encoding="UTF-8"?>
<!DOCTYPE svg PUBLIC "-//W3C//DTD SVG 1.1//EN" "http://www.w3.org/Graphics/SVG/1.1/DTD/svg11.dtd">
<svg xmlns="http://www.w3.org/2000/svg" style="background: transparent; background-color: transparent; color-scheme: light dark;" xmlns:xlink="http://www.w3.org/1999/xlink" version="1.1" width="786px" height="628px" viewBox="0 0 786 628"><defs/><g><g data-cell-id="0"><g data-cell-id="1"><g data-cell-id="qJ3K5Y1HbaeOGeg32RPP-4"><g transform="translate(0.5,0.5)"><rect x="355" y="36" width="190" height="590" rx="28.5" ry="28.5" fill="#dae8fc" stroke="#6c8ebf" pointer-events="all" style="fill: rgb(218, 232, 252); stroke: rgb(108, 142, 191);"/></g></g><g data-cell-id="qJ3K5Y1HbaeOGeg32RPP-5"><g transform="translate(0.5,0.5)"><rect x="115" y="236" width="110" height="30" fill="none" stroke="none" pointer-events="all"/></g><g><g><switch><foreignObject style="overflow: visible; text-align: left;" pointer-events="none" width="100%" height="100%" requiredFeatures="http://www.w3.org/TR/SVG11/feature#Extensibility"><div xmlns="http://www.w3.org/1999/xhtml" style="display: flex; align-items: unsafe center; justify-content: unsafe center; width: 108px; height: 1px; padding-top: 251px; margin-left: 116px;"><div style="box-sizing: border-box; font-size: 0; text-align: center; color: #000000; "><div style="display: inline-block; font-size: 21px; font-family: Helvetica; color: light-dark(#000000, #ffffff); line-height: 1.2; pointer-events: all; white-space: normal; word-wrap: normal; ">Browser</div></div></div></foreignObject><text x="170" y="257" fill="light-dark(#000000, #ffffff)" font-family="Helvetica" font-size="21px" text-anchor="middle">Browser</text></switch></g></g></g><g data-cell-id="qJ3K5Y1HbaeOGeg32RPP-6"><g transform="translate(0.5,0.5)"><rect x="375" y="286" width="150" height="90" rx="13.5" ry="13.5" fill="#1ba1e2" stroke="#006eaf" pointer-events="all" style="fill: rgb(27, 161, 226); stroke: rgb(0, 110, 175);"/></g><g><g><switch><foreignObject style="overflow: visible; text-align: left;" pointer-events="none" width="100%" height="100%" requiredFeatures="http://www.w3.org/TR/SVG11/feature#Extensibility"><div xmlns="http://www.w3.org/1999/xhtml" style="display: flex; align-items: unsafe center; justify-content: unsafe center; width: 148px; height: 1px; padding-top: 331px; margin-left: 376px;"><div style="box-sizing: border-box; font-size: 0; text-align: center; color: #ffffff; "><div style="display: inline-block; font-size: 12px; font-family: Helvetica; color: #ffffff; line-height: 1.2; pointer-events: all; white-space: normal; word-wrap: normal; ">OpenID Connect</div></div></div></foreignObject><text x="450" y="335" fill="#ffffff" font-family="Helvetica" font-size="12px" text-anchor="middle">OpenID Connect</text></switch></g></g></g><g data-cell-id="qJ3K5Y1HbaeOGeg32RPP-7"><g transform="translate(0.5,0.5)"><rect x="375" y="56" width="150" height="220" rx="18" ry="18" fill="#1ba1e2" stroke="#006eaf" pointer-events="all" style="fill: rgb(27, 161, 226); stroke: rgb(0, 110, 175);"/></g><g><g><switch><foreignObject style="overflow: visible; text-align: left;" pointer-events="none" width="100%" height="100%" requiredFeatures="http://www.w3.org/TR/SVG11/feature#Extensibility"><div xmlns="http://www.w3.org/1999/xhtml" style="display: flex; align-items: unsafe flex-start; justify-content: unsafe center; width: 148px; height: 1px; padding-top: 63px; margin-left: 376px;"><div style="box-sizing: border-box; font-size: 0; text-align: center; color: #ffffff; "><div style="display: inline-block; font-size: 12px; font-family: Helvetica; color: #ffffff; line-height: 1.2; pointer-events: all; white-space: normal; word-wrap: normal; ">Console</div></div></div></foreignObject><text x="450" y="75" fill="#ffffff" font-family="Helvetica" font-size="12px" text-anchor="middle">Console</text></switch></g></g></g><g data-cell-id="qJ3K5Y1HbaeOGeg32RPP-27"><g transform="translate(0.5,0.5)"><path d="M 505 123.5 L 585.05 123.48 L 585.05 308.52 L 531.37 308.5" fill="none" stroke="#000000" stroke-miterlimit="10" pointer-events="stroke" style="stroke: light-dark(rgb(0, 0, 0), rgb(255, 255, 255));"/><path d="M 526.12 308.5 L 533.12 305 L 531.37 308.5 L 533.12 312 Z" fill="#000000" stroke="#000000" stroke-miterlimit="10" pointer-events="all" style="fill: light-dark(rgb(0, 0, 0), rgb(255, 255, 255)); stroke: light-dark(rgb(0, 0, 0), rgb(255, 255, 255));"/></g><g data-cell-id="qJ3K5Y1HbaeOGeg32RPP-30"><g><g><switch><foreignObject style="overflow: visible; text-align: left;" pointer-events="none" width="100%" height="100%" requiredFeatures="http://www.w3.org/TR/SVG11/feature#Extensibility"><div xmlns="http://www.w3.org/1999/xhtml" style="display: flex; align-items: unsafe center; justify-content: unsafe center; width: 1px; height: 1px; padding-top: 168px; margin-left: 585px;"><div style="box-sizing: border-box; font-size: 0; text-align: center; color: #000000; background-color: #ffffff; "><div style="display: inline-block; font-size: 11px; font-family: Helvetica; color: light-dark(#000000, #ffffff); line-height: 1.2; pointer-events: all; background-color: light-dark(#ffffff, var(--ge-dark-color, #121212)); white-space: nowrap; ">HTTPS<div>Certificate</div></div></div></div></foreignObject><text x="585" y="171" fill="light-dark(#000000, #ffffff)" font-family="Helvetica" font-size="11px" text-anchor="middle">HTTPS...</text></switch></g></g></g></g><g data-cell-id="qJ3K5Y1HbaeOGeg32RPP-47"><g transform="translate(0.5,0.5)"><path d="M 390 111 L 173.59 111" fill="none" stroke="#000000" stroke-miterlimit="10" pointer-events="stroke" style="stroke: light-dark(rgb(0, 0, 0), rgb(255, 255, 255));"/><path d="M 168.34 111 L 175.34 107.5 L 173.59 111 L 175.34 114.5 Z" fill="#000000" stroke="#000000" stroke-miterlimit="10" pointer-events="all" style="fill: light-dark(rgb(0, 0, 0), rgb(255, 255, 255)); stroke: light-dark(rgb(0, 0, 0), rgb(255, 255, 255));"/></g></g><g data-cell-id="qJ3K5Y1HbaeOGeg32RPP-8"><g transform="translate(0.5,0.5)"><rect x="390" y="86" width="115" height="50" fill="#0050ef" stroke="#001dbc" pointer-events="all" style="fill: rgb(0, 80, 239); stroke: rgb(0, 29, 188);"/></g><g><g><switch><foreignObject style="overflow: visible; text-align: left;" pointer-events="none" width="100%" height="100%" requiredFeatures="http://www.w3.org/TR/SVG11/feature#Extensibility"><div xmlns="http://www.w3.org/1999/xhtml" style="display: flex; align-items: unsafe center; justify-content: unsafe center; width: 113px; height: 1px; padding-top: 111px; margin-left: 391px;"><div style="box-sizing: border-box; font-size: 0; text-align: center; color: #ffffff; "><div style="display: inline-block; font-size: 12px; font-family: Helvetica; color: #ffffff; line-height: 1.2; pointer-events: all; white-space: normal; word-wrap: normal; ">Certificate<div>Authority</div></div></div></div></foreignObject><text x="448" y="115" fill="#ffffff" font-family="Helvetica" font-size="12px" text-anchor="middle">Certificate...</text></switch></g></g></g><g data-cell-id="qJ3K5Y1HbaeOGeg32RPP-9"><g transform="translate(0.5,0.5)"><rect x="390" y="146" width="115" height="50" fill="#0050ef" stroke="#001dbc" pointer-events="all" style="fill: rgb(0, 80, 239); stroke: rgb(0, 29, 188);"/></g><g><g><switch><foreignObject style="overflow: visible; text-align: left;" pointer-events="none" width="100%" height="100%" requiredFeatures="http://www.w3.org/TR/SVG11/feature#Extensibility"><div xmlns="http://www.w3.org/1999/xhtml" style="display: flex; align-items: unsafe center; justify-content: unsafe center; width: 113px; height: 1px; padding-top: 171px; margin-left: 391px;"><div style="box-sizing: border-box; font-size: 0; text-align: center; color: #ffffff; "><div style="display: inline-block; font-size: 12px; font-family: Helvetica; color: #ffffff; line-height: 1.2; pointer-events: all; white-space: normal; word-wrap: normal; ">Config Viewer</div></div></div></foreignObject><text x="448" y="175" fill="#ffffff" font-family="Helvetica" font-size="12px" text-anchor="middle">Config Viewer</text></switch></g></g></g><g data-cell-id="qJ3K5Y1HbaeOGeg32RPP-10"><g transform="translate(0.5,0.5)"><rect x="390" y="206" width="115" height="50" fill="#0050ef" stroke="#001dbc" pointer-events="all" style="fill: rgb(0, 80, 239); stroke: rgb(0, 29, 188);"/></g><g><g><switch><foreignObject style="overflow: visible; text-align: left;" pointer-events="none" width="100%" height="100%" requiredFeatures="http://www.w3.org/TR/SVG11/feature#Extensibility"><div xmlns="http://www.w3.org/1999/xhtml" style="display: flex; align-items: unsafe center; justify-content: unsafe center; width: 113px; height: 1px; padding-top: 231px; margin-left: 391px;"><div style="box-sizing: border-box; font-size: 0; text-align: center; color: #ffffff; "><div style="display: inline-block; font-size: 12px; font-family: Helvetica; color: #ffffff; line-height: 1.2; pointer-events: all; white-space: normal; word-wrap: normal; ">Reverse Proxy<div>Log Viewer/Replay</div></div></div></div></foreignObject><text x="448" y="235" fill="#ffffff" font-family="Helvetica" font-size="12px" text-anchor="middle">Reverse Proxy...</text></switch></g></g></g><g data-cell-id="qJ3K5Y1HbaeOGeg32RPP-33"><g transform="translate(0.5,0.5)"><path d="M 185 331 L 288.63 331" fill="none" stroke="#000000" stroke-miterlimit="10" stroke-dasharray="8 8" pointer-events="stroke" style="stroke: light-dark(rgb(0, 0, 0), rgb(255, 255, 255));"/><path d="M 293.88 331 L 286.88 334.5 L 288.63 331 L 286.88 327.5 Z" fill="#000000" stroke="#000000" stroke-miterlimit="10" pointer-events="all" style="fill: light-dark(rgb(0, 0, 0), rgb(255, 255, 255)); stroke: light-dark(rgb(0, 0, 0), rgb(255, 255, 255));"/></g></g><g data-cell-id="qJ3K5Y1HbaeOGeg32RPP-34"><g transform="translate(0.5,0.5)"><path d="M 185 301 L 255.05 301 L 255.05 166.05 L 288.63 166.01" fill="none" stroke="#000000" stroke-miterlimit="10" stroke-dasharray="8 8" pointer-events="stroke" style="stroke: light-dark(rgb(0, 0, 0), rgb(255, 255, 255));"/><path d="M 293.88 166 L 286.89 169.51 L 288.63 166.01 L 286.88 162.51 Z" fill="#000000" stroke="#000000" stroke-miterlimit="10" pointer-events="all" style="fill: light-dark(rgb(0, 0, 0), rgb(255, 255, 255)); stroke: light-dark(rgb(0, 0, 0), rgb(255, 255, 255));"/></g></g><g data-cell-id="qJ3K5Y1HbaeOGeg32RPP-48"><g transform="translate(0.5,0.5)"><path d="M 56.31 330.81 L 25.05 330.81 L 25.05 111 L 68.63 111" fill="none" stroke="#000000" stroke-miterlimit="10" pointer-events="stroke" style="stroke: light-dark(rgb(0, 0, 0), rgb(255, 255, 255));"/><path d="M 73.88 111 L 66.88 114.5 L 68.63 111 L 66.88 107.5 Z" fill="#000000" stroke="#000000" stroke-miterlimit="10" pointer-events="all" style="fill: light-dark(rgb(0, 0, 0), rgb(255, 255, 255)); stroke: light-dark(rgb(0, 0, 0), rgb(255, 255, 255));"/></g><g data-cell-id="qJ3K5Y1HbaeOGeg32RPP-53"><g><g><switch><foreignObject style="overflow: visible; text-align: left;" pointer-events="none" width="100%" height="100%" requiredFeatures="http://www.w3.org/TR/SVG11/feature#Extensibility"><div xmlns="http://www.w3.org/1999/xhtml" style="display: flex; align-items: unsafe center; justify-content: unsafe center; width: 1px; height: 1px; padding-top: 225px; margin-left: 27px;"><div style="box-sizing: border-box; font-size: 0; text-align: center; color: #000000; background-color: #ffffff; "><div style="display: inline-block; font-size: 11px; font-family: Helvetica; color: light-dark(#000000, #ffffff); line-height: 1.2; pointer-events: all; background-color: light-dark(#ffffff, var(--ge-dark-color, #121212)); white-space: nowrap; ">Certificate<div>Verification</div></div></div></div></foreignObject><text x="27" y="229" fill="light-dark(#000000, #ffffff)" font-family="Helvetica" font-size="11px" text-anchor="middle">Certificate...</text></switch></g></g></g></g><g data-cell-id="qJ3K5Y1HbaeOGeg32RPP-14"><g transform="translate(0.5,0.5)"><rect x="395" y="6" width="110" height="30" fill="none" stroke="none" pointer-events="all"/></g><g><g><switch><foreignObject style="overflow: visible; text-align: left;" pointer-events="none" width="100%" height="100%" requiredFeatures="http://www.w3.org/TR/SVG11/feature#Extensibility"><div xmlns="http://www.w3.org/1999/xhtml" style="display: flex; align-items: unsafe center; justify-content: unsafe center; width: 108px; height: 1px; padding-top: 21px; margin-left: 396px;"><div style="box-sizing: border-box; font-size: 0; text-align: center; color: #000000; "><div style="display: inline-block; font-size: 21px; font-family: Helvetica; color: light-dark(#000000, #ffffff); line-height: 1.2; pointer-events: all; white-space: normal; word-wrap: normal; ">OIDCLD</div></div></div></foreignObject><text x="450" y="27" fill="light-dark(#000000, #ffffff)" font-family="Helvetica" font-size="21px" text-anchor="middle">OIDCLD</text></switch></g></g></g><g data-cell-id="qJ3K5Y1HbaeOGeg32RPP-29"><g transform="translate(0.5,0.5)"><path d="M 525 441 L 655.05 441 L 655.05 231 L 588.05 231 C 588.05 227.1 582.05 227.1 582.05 231 L 582.05 231 L 511.37 231" fill="none" stroke="#000000" stroke-miterlimit="10" pointer-events="stroke" style="stroke: light-dark(rgb(0, 0, 0), rgb(255, 255, 255));"/><path d="M 506.12 231 L 513.12 227.5 L 511.37 231 L 513.12 234.5 Z" fill="#000000" stroke="#000000" stroke-miterlimit="10" pointer-events="all" style="fill: light-dark(rgb(0, 0, 0), rgb(255, 255, 255)); stroke: light-dark(rgb(0, 0, 0), rgb(255, 255, 255));"/></g><g data-cell-id="qJ3K5Y1HbaeOGeg32RPP-32"><g><g><switch><foreignObject style="overflow: visible; text-align: left;" pointer-events="none" width="100%" height="100%" requiredFeatures="http://www.w3.org/TR/SVG11/feature#Extensibility"><div xmlns="http://www.w3.org/1999/xhtml" style="display: flex; align-items: unsafe center; justify-content: unsafe center; width: 1px; height: 1px; padding-top: 347px; margin-left: 666px;"><div style="box-sizing: border-box; font-size: 0; text-align: center; color: #000000; background-color: #ffffff; "><div style="display: inline-block; font-size: 11px; font-family: Helvetica; color: light-dark(#000000, #ffffff); line-height: 1.2; pointer-events: all; background-color: light-dark(#ffffff, var(--ge-dark-color, #121212)); white-space: nowrap; ">Access Log</div></div></div></foreignObject><text x="666" y="350" fill="light-dark(#000000, #ffffff)" font-family="Helvetica" font-size="11px" text-anchor="middle">Access Log</text></switch></g></g></g></g><g data-cell-id="qJ3K5Y1HbaeOGeg32RPP-15"><g transform="translate(0.5,0.5)"><rect x="375" y="386" width="150" height="220" rx="16.5" ry="16.5" fill="#1ba1e2" stroke="#006eaf" pointer-events="all" style="fill: rgb(27, 161, 226); stroke: rgb(0, 110, 175);"/></g><g><g><switch><foreignObject style="overflow: visible; text-align: left;" pointer-events="none" width="100%" height="100%" requiredFeatures="http://www.w3.org/TR/SVG11/feature#Extensibility"><div xmlns="http://www.w3.org/1999/xhtml" style="display: flex; align-items: unsafe flex-start; justify-content: unsafe center; width: 148px; height: 1px; padding-top: 393px; margin-left: 376px;"><div style="box-sizing: border-box; font-size: 0; text-align: center; color: #ffffff; "><div style="display: inline-block; font-size: 12px; font-family: Helvetica; color: #ffffff; line-height: 1.2; pointer-events: all; white-space: normal; word-wrap: normal; ">Reverse Proxy</div></div></div></foreignObject><text x="450" y="405" fill="#ffffff" font-family="Helvetica" font-size="12px" text-anchor="middle">Reverse Proxy</text></switch></g></g></g><g data-cell-id="qJ3K5Y1HbaeOGeg32RPP-16"><g transform="translate(0.5,0.5)"><ellipse cx="305" cy="166" rx="10" ry="10" fill="#ffffff" stroke="#000000" pointer-events="all" style="fill: light-dark(#ffffff, var(--ge-dark-color, #121212)); stroke: light-dark(rgb(0, 0, 0), rgb(255, 255, 255));"/></g></g><g data-cell-id="qJ3K5Y1HbaeOGeg32RPP-17"><g transform="translate(0.5,0.5)"><path d="M 315 166 L 375 166" fill="none" stroke="#000000" stroke-miterlimit="10" pointer-events="stroke" style="stroke: light-dark(rgb(0, 0, 0), rgb(255, 255, 255));"/></g></g><g data-cell-id="qJ3K5Y1HbaeOGeg32RPP-18"><g transform="translate(0.5,0.5)"><ellipse cx="305" cy="496" rx="10" ry="10" fill="#ffffff" stroke="#000000" pointer-events="all" style="fill: light-dark(#ffffff, var(--ge-dark-color, #121212)); stroke: light-dark(rgb(0, 0, 0), rgb(255, 255, 255));"/></g></g><g data-cell-id="qJ3K5Y1HbaeOGeg32RPP-19"><g transform="translate(0.5,0.5)"><path d="M 315 496 L 375 496" fill="none" stroke="#000000" stroke-miterlimit="10" pointer-events="stroke" style="stroke: light-dark(rgb(0, 0, 0), rgb(255, 255, 255));"/></g></g><g data-cell-id="qJ3K5Y1HbaeOGeg32RPP-20"><g transform="translate(0.5,0.5)"><ellipse cx="305" cy="331" rx="10" ry="10" fill="#ffffff" stroke="#000000" pointer-events="all" style="fill: light-dark(#ffffff, var(--ge-dark-color, #121212)); stroke: light-dark(rgb(0, 0, 0), rgb(255, 255, 255));"/></g></g><g data-cell-id="qJ3K5Y1HbaeOGeg32RPP-21"><g transform="translate(0.5,0.5)"><path d="M 315 331 L 375 331" fill="none" stroke="#000000" stroke-miterlimit="10" pointer-events="stroke" style="stroke: light-dark(rgb(0, 0, 0), rgb(255, 255, 255));"/></g></g><g data-cell-id="qJ3K5Y1HbaeOGeg32RPP-22"><g><path d="M 315 476 L 314.38 346" fill="none" stroke="#000000" stroke-width="2" stroke-miterlimit="10" stroke-dasharray="2 6" pointer-events="stroke" style="stroke: light-dark(rgb(0, 0, 0), rgb(255, 255, 255));"/></g></g><g data-cell-id="qJ3K5Y1HbaeOGeg32RPP-23"><g transform="translate(0.5,0.5)"><rect x="275" y="396" width="80" height="40" fill="#ffffff" stroke="none" pointer-events="all" style="fill: light-dark(#ffffff, var(--ge-dark-color, #121212));"/></g><g><g><switch><foreignObject style="overflow: visible; text-align: left;" pointer-events="none" width="100%" height="100%" requiredFeatures="http://www.w3.org/TR/SVG11/feature#Extensibility"><div xmlns="http://www.w3.org/1999/xhtml" style="display: flex; align-items: unsafe center; justify-content: unsafe center; width: 78px; height: 1px; padding-top: 416px; margin-left: 276px;"><div style="box-sizing: border-box; font-size: 0; text-align: center; color: #000000; "><div style="display: inline-block; font-size: 12px; font-family: Helvetica; color: light-dark(#000000, #ffffff); line-height: 1.2; pointer-events: all; white-space: normal; word-wrap: normal; ">Share Port<div>or</div><div>Separate Port</div></div></div></div></foreignObject><text x="315" y="420" fill="light-dark(#000000, #ffffff)" font-family="Helvetica" font-size="12px" text-anchor="middle">Share Port...</text></switch></g></g></g><g data-cell-id="qJ3K5Y1HbaeOGeg32RPP-24"><g transform="translate(0.5,0.5)"><rect x="275" y="126" width="60" height="30" fill="none" stroke="none" pointer-events="all"/></g><g><g><switch><foreignObject style="overflow: visible; text-align: left;" pointer-events="none" width="100%" height="100%" requiredFeatures="http://www.w3.org/TR/SVG11/feature#Extensibility"><div xmlns="http://www.w3.org/1999/xhtml" style="display: flex; align-items: unsafe center; justify-content: unsafe center; width: 58px; height: 1px; padding-top: 141px; margin-left: 276px;"><div style="box-sizing: border-box; font-size: 0; text-align: center; color: #000000; "><div style="display: inline-block; font-size: 12px; font-family: Helvetica; color: light-dark(#000000, #ffffff); line-height: 1.2; pointer-events: all; white-space: normal; word-wrap: normal; ">HTTP</div></div></div></foreignObject><text x="305" y="145" fill="light-dark(#000000, #ffffff)" font-family="Helvetica" font-size="12px" text-anchor="middle">HTTP</text></switch></g></g></g><g data-cell-id="qJ3K5Y1HbaeOGeg32RPP-25"><g transform="translate(0.5,0.5)"><rect x="275" y="291" width="60" height="30" fill="none" stroke="none" pointer-events="all"/></g><g><g><switch><foreignObject style="overflow: visible; text-align: left;" pointer-events="none" width="100%" height="100%" requiredFeatures="http://www.w3.org/TR/SVG11/feature#Extensibility"><div xmlns="http://www.w3.org/1999/xhtml" style="display: flex; align-items: unsafe center; justify-content: unsafe center; width: 58px; height: 1px; padding-top: 306px; margin-left: 276px;"><div style="box-sizing: border-box; font-size: 0; text-align: center; color: #000000; "><div style="display: inline-block; font-size: 12px; font-family: Helvetica; color: light-dark(#000000, #ffffff); line-height: 1.2; pointer-events: all; white-space: normal; word-wrap: normal; ">HTTP or HTTPS</div></div></div></foreignObject><text x="305" y="310" fill="light-dark(#000000, #ffffff)" font-family="Helvetica" font-size="12px" text-anchor="middle">HTTP or HT...</text></switch></g></g></g><g data-cell-id="qJ3K5Y1HbaeOGeg32RPP-26"><g transform="translate(0.5,0.5)"><rect x="275" y="516" width="60" height="30" fill="none" stroke="none" pointer-events="all"/></g><g><g><switch><foreignObject style="overflow: visible; text-align: left;" pointer-events="none" width="100%" height="100%" requiredFeatures="http://www.w3.org/TR/SVG11/feature#Extensibility"><div xmlns="http://www.w3.org/1999/xhtml" style="display: flex; align-items: unsafe center; justify-content: unsafe center; width: 58px; height: 1px; padding-top: 531px; margin-left: 276px;"><div style="box-sizing: border-box; font-size: 0; text-align: center; color: #000000; "><div style="display: inline-block; font-size: 12px; font-family: Helvetica; color: light-dark(#000000, #ffffff); line-height: 1.2; pointer-events: all; white-space: normal; word-wrap: normal; ">HTTP or HTTPS</div></div></div></foreignObject><text x="305" y="535" fill="light-dark(#000000, #ffffff)" font-family="Helvetica" font-size="12px" text-anchor="middle">HTTP or HT...</text></switch></g></g></g><g data-cell-id="qJ3K5Y1HbaeOGeg32RPP-28"><g transform="translate(0.5,0.5)"><path d="M 505 98.5 L 625.05 98.52 L 625.05 228 C 628.95 228 628.95 234 625.05 234 L 625.05 234 L 625.05 425.19 L 530.62 425.16" fill="none" stroke="#000000" stroke-miterlimit="10" pointer-events="stroke" style="stroke: light-dark(rgb(0, 0, 0), rgb(255, 255, 255));"/><path d="M 525.37 425.16 L 532.37 421.66 L 530.62 425.16 L 532.37 428.66 Z" fill="#000000" stroke="#000000" stroke-miterlimit="10" pointer-events="all" style="fill: light-dark(rgb(0, 0, 0), rgb(255, 255, 255)); stroke: light-dark(rgb(0, 0, 0), rgb(255, 255, 255));"/></g><g data-cell-id="qJ3K5Y1HbaeOGeg32RPP-31"><g><g><switch><foreignObject style="overflow: visible; text-align: left;" pointer-events="none" width="100%" height="100%" requiredFeatures="http://www.w3.org/TR/SVG11/feature#Extensibility"><div xmlns="http://www.w3.org/1999/xhtml" style="display: flex; align-items: unsafe center; justify-content: unsafe center; width: 1px; height: 1px; padding-top: 206px; margin-left: 636px;"><div style="box-sizing: border-box; font-size: 0; text-align: center; color: #000000; background-color: #ffffff; "><div style="display: inline-block; font-size: 11px; font-family: Helvetica; color: light-dark(#000000, #ffffff); line-height: 1.2; pointer-events: all; background-color: light-dark(#ffffff, var(--ge-dark-color, #121212)); white-space: nowrap; ">HTTPS<div>Certificate</div></div></div></div></foreignObject><text x="636" y="209" fill="light-dark(#000000, #ffffff)" font-family="Helvetica" font-size="11px" text-anchor="middle">HTTPS...</text></switch></g></g></g></g><g data-cell-id="qJ3K5Y1HbaeOGeg32RPP-35"><g transform="translate(0.5,0.5)"><path d="M 185 361 L 255.05 361 L 255.05 496.05 L 288.63 496.01" fill="none" stroke="#000000" stroke-miterlimit="10" stroke-dasharray="8 8" pointer-events="stroke" style="stroke: light-dark(rgb(0, 0, 0), rgb(255, 255, 255));"/><path d="M 293.88 496 L 286.89 499.51 L 288.63 496.01 L 286.88 492.51 Z" fill="#000000" stroke="#000000" stroke-miterlimit="10" pointer-events="all" style="fill: light-dark(rgb(0, 0, 0), rgb(255, 255, 255)); stroke: light-dark(rgb(0, 0, 0), rgb(255, 255, 255));"/></g></g><g data-cell-id="qJ3K5Y1HbaeOGeg32RPP-38"><g transform="translate(0.5,0.5)"><rect x="705" y="396" width="80" height="30" fill="none" stroke="none" pointer-events="all"/></g><g><g><switch><foreignObject style="overflow: visible; text-align: left;" pointer-events="none" width="100%" height="100%" requiredFeatures="http://www.w3.org/TR/SVG11/feature#Extensibility"><div xmlns="http://www.w3.org/1999/xhtml" style="display: flex; align-items: unsafe center; justify-content: unsafe center; width: 78px; height: 1px; padding-top: 411px; margin-left: 706px;"><div style="box-sizing: border-box; font-size: 0; text-align: center; color: #000000; "><div style="display: inline-block; font-size: 12px; font-family: Helvetica; color: light-dark(#000000, #ffffff); line-height: 1.2; pointer-events: all; white-space: normal; word-wrap: normal; "><div>Frontend</div>Dev Server</div></div></div></foreignObject><text x="745" y="415" fill="light-dark(#000000, #ffffff)" font-family="Helvetica" font-size="12px" text-anchor="middle">FrontendDev S...</text></switch></g></g></g><g data-cell-id="qJ3K5Y1HbaeOGeg32RPP-39"><g transform="translate(0.5,0.5)"><rect x="705" y="526" width="80" height="30" fill="none" stroke="none" pointer-events="all"/></g><g><g><switch><foreignObject style="overflow: visible; text-align: left;" pointer-events="none" width="100%" height="100%" requiredFeatures="http://www.w3.org/TR/SVG11/feature#Extensibility"><div xmlns="http://www.w3.org/1999/xhtml" style="display: flex; align-items: unsafe center; justify-content: unsafe center; width: 78px; height: 1px; padding-top: 541px; margin-left: 706px;"><div style="box-sizing: border-box; font-size: 0; text-align: center; color: #000000; "><div style="display: inline-block; font-size: 12px; font-family: Helvetica; color: light-dark(#000000, #ffffff); line-height: 1.2; pointer-events: all; white-space: normal; word-wrap: normal; "><div>API</div>Dev Server</div></div></div></foreignObject><text x="745" y="545" fill="light-dark(#000000, #ffffff)" font-family="Helvetica" font-size="12px" text-anchor="middle">APIDev Server</text></switch></g></g></g><g data-cell-id="qJ3K5Y1HbaeOGeg32RPP-44"><g transform="translate(0.5,0.5)"><path d="M 505 466 L 613.43 466.05 L 613.43 594.52 L 715.38 594.5" fill="none" stroke="#000000" stroke-miterlimit="10" pointer-events="stroke" style="stroke: light-dark(rgb(0, 0, 0), rgb(255, 255, 255));"/><path d="M 720.63 594.5 L 713.63 598 L 715.38 594.5 L 713.63 591 Z" fill="#000000" stroke="#000000" stroke-miterlimit="10" pointer-events="all" style="fill: light-dark(rgb(0, 0, 0), rgb(255, 255, 255)); stroke: light-dark(rgb(0, 0, 0), rgb(255, 255, 255));"/></g></g><g data-cell-id="qJ3K5Y1HbaeOGeg32RPP-52"><g transform="translate(0.5,0.5)"><path d="M 505 456 L 714.63 456" fill="none" stroke="#000000" stroke-miterlimit="10" pointer-events="stroke" style="stroke: light-dark(rgb(0, 0, 0), rgb(255, 255, 255));"/><path d="M 719.88 456 L 712.88 459.5 L 714.63 456 L 712.88 452.5 Z" fill="#000000" stroke="#000000" stroke-miterlimit="10" pointer-events="all" style="fill: light-dark(rgb(0, 0, 0), rgb(255, 255, 255)); stroke: light-dark(rgb(0, 0, 0), rgb(255, 255, 255));"/></g></g><g data-cell-id="qJ3K5Y1HbaeOGeg32RPP-40"><g transform="translate(0.5,0.5)"><rect x="395" y="436" width="110" height="40" fill="#0050ef" stroke="#001dbc" pointer-events="all" style="fill: rgb(0, 80, 239); stroke: rgb(0, 29, 188);"/></g><g><g><switch><foreignObject style="overflow: visible; text-align: left;" pointer-events="none" width="100%" height="100%" requiredFeatures="http://www.w3.org/TR/SVG11/feature#Extensibility"><div xmlns="http://www.w3.org/1999/xhtml" style="display: flex; align-items: unsafe center; justify-content: unsafe center; width: 108px; height: 1px; padding-top: 456px; margin-left: 396px;"><div style="box-sizing: border-box; font-size: 0; text-align: center; color: #ffffff; "><div style="display: inline-block; font-size: 12px; font-family: Helvetica; color: #ffffff; line-height: 1.2; pointer-events: all; white-space: normal; word-wrap: normal; ">VirtualHost /<div>Path base router</div></div></div></div></foreignObject><text x="450" y="460" fill="#ffffff" font-family="Helvetica" font-size="12px" text-anchor="middle">VirtualHost /...</text></switch></g></g></g><g data-cell-id="qJ3K5Y1HbaeOGeg32RPP-41"><g transform="translate(0.5,0.5)"><rect x="395" y="496" width="110" height="40" fill="#0050ef" stroke="#001dbc" pointer-events="all" style="fill: rgb(0, 80, 239); stroke: rgb(0, 29, 188);"/></g><g><g><switch><foreignObject style="overflow: visible; text-align: left;" pointer-events="none" width="100%" height="100%" requiredFeatures="http://www.w3.org/TR/SVG11/feature#Extensibility"><div xmlns="http://www.w3.org/1999/xhtml" style="display: flex; align-items: unsafe center; justify-content: unsafe center; width: 108px; height: 1px; padding-top: 516px; margin-left: 396px;"><div style="box-sizing: border-box; font-size: 0; text-align: center; color: #ffffff; "><div style="display: inline-block; font-size: 12px; font-family: Helvetica; color: #ffffff; line-height: 1.2; pointer-events: all; white-space: normal; word-wrap: normal; ">Static HTML<div>SPA hosting</div></div></div></div></foreignObject><text x="450" y="520" fill="#ffffff" font-family="Helvetica" font-size="12px" text-anchor="middle">Static HTML...</text></switch></g></g></g><g data-cell-id="qJ3K5Y1HbaeOGeg32RPP-42"><g transform="translate(0.5,0.5)"><rect x="395" y="556" width="110" height="40" fill="#0050ef" stroke="#001dbc" pointer-events="all" style="fill: rgb(0, 80, 239); stroke: rgb(0, 29, 188);"/></g><g><g><switch><foreignObject style="overflow: visible; text-align: left;" pointer-events="none" width="100%" height="100%" requiredFeatures="http://www.w3.org/TR/SVG11/feature#Extensibility"><div xmlns="http://www.w3.org/1999/xhtml" style="display: flex; align-items: unsafe center; justify-content: unsafe center; width: 108px; height: 1px; padding-top: 576px; margin-left: 396px;"><div style="box-sizing: border-box; font-size: 0; text-align: center; color: #ffffff; "><div style="display: inline-block; font-size: 12px; font-family: Helvetica; color: #ffffff; line-height: 1.2; pointer-events: all; white-space: normal; word-wrap: normal; ">OpenAPI based<div>mock server</div></div></div></div></foreignObject><text x="450" y="580" fill="#ffffff" font-family="Helvetica" font-size="12px" text-anchor="middle">OpenAPI based...</text></switch></g></g></g><g data-cell-id="qJ3K5Y1HbaeOGeg32RPP-46"><g transform="translate(0.5,0.5)"><rect x="65" y="26" width="110" height="30" fill="none" stroke="none" pointer-events="all"/></g><g><g><switch><foreignObject style="overflow: visible; text-align: left;" pointer-events="none" width="100%" height="100%" requiredFeatures="http://www.w3.org/TR/SVG11/feature#Extensibility"><div xmlns="http://www.w3.org/1999/xhtml" style="display: flex; align-items: unsafe center; justify-content: unsafe center; width: 108px; height: 1px; padding-top: 41px; margin-left: 66px;"><div style="box-sizing: border-box; font-size: 0; text-align: center; color: #000000; "><div style="display: inline-block; font-size: 21px; font-family: Helvetica; color: light-dark(#000000, #ffffff); line-height: 1.2; pointer-events: all; white-space: normal; word-wrap: normal; ">Operating<div>System</div></div></div></div></foreignObject><text x="120" y="47" fill="light-dark(#000000, #ffffff)" font-family="Helvetica" font-size="21px" text-anchor="middle">Operating...</text></switch></g></g></g><g data-cell-id="qJ3K5Y1HbaeOGeg32RPP-49"><g transform="translate(0.5,0.5)"><rect x="227" y="46" width="48" height="56" fill="none" stroke="none" pointer-events="all"/><path d="M 257.01 70.97 L 236.75 70.97 L 236.75 68.7 L 257.01 68.7 Z M 257.01 77.03 L 236.75 77.03 L 236.75 74.76 L 257.01 74.76 Z M 256.35 83.08 L 236.75 83.08 L 236.75 80.81 L 256.35 80.81 Z M 261.36 93.68 L 227 93.68 L 227 46 L 254.75 46 L 266.75 58.11 L 266.75 71.73 L 264.51 71.73 L 264.51 60.38 L 253.26 60.38 L 253.26 48.27 L 229.25 48.27 L 229.25 91.41 L 259.1 91.41 Z M 266.76 95.95 L 258.55 87.62 L 258.55 83.08 L 264.51 89.14 L 264.51 74 L 269.01 74 L 269.01 89.09 L 275 83.09 L 275 87.62 Z M 274.26 102 L 259.26 102 L 259.26 98.22 L 274.26 98.22 Z" fill="#505050" stroke="none" pointer-events="all" style="fill: rgb(80, 80, 80);"/></g></g><g data-cell-id="qJ3K5Y1HbaeOGeg32RPP-50"><g transform="translate(0.5,0.5)"><rect x="215" y="6" width="60" height="30" fill="none" stroke="none" pointer-events="all"/></g><g><g><switch><foreignObject style="overflow: visible; text-align: left;" pointer-events="none" width="100%" height="100%" requiredFeatures="http://www.w3.org/TR/SVG11/feature#Extensibility"><div xmlns="http://www.w3.org/1999/xhtml" style="display: flex; align-items: unsafe center; justify-content: unsafe center; width: 58px; height: 1px; padding-top: 21px; margin-left: 216px;"><div style="box-sizing: border-box; font-size: 0; text-align: center; color: #000000; "><div style="display: inline-block; font-size: 12px; font-family: Helvetica; color: light-dark(#000000, #ffffff); line-height: 1.2; pointer-events: all; white-space: normal; word-wrap: normal; ">Download and Install Certificate</div></div></div></foreignObject><text x="245" y="25" fill="light-dark(#000000, #ffffff)" font-family="Helvetica" font-size="12px" text-anchor="middle">Download a...</text></switch></g></g></g><g data-cell-id="qJ3K5Y1HbaeOGeg32RPP-51"><g><path d="M 675 576 L 675 476" fill="none" stroke="#000000" stroke-width="2" stroke-miterlimit="10" stroke-dasharray="2 6" pointer-events="stroke" style="stroke: light-dark(rgb(0, 0, 0), rgb(255, 255, 255));"/></g></g><g data-cell-id="FVi2bNsRIhQWAcT6SHi--1"><g transform="translate(0.5,0.5)"><rect x="72.78" y="68.5" width="94.44" height="85" fill="none" stroke="none" pointer-events="all"/><path d="M 77.18 135.65 C 75.92 135.54 74.76 134.93 73.96 133.98 C 73.16 133.02 72.78 131.79 72.91 130.57 L 72.91 73.23 C 73.11 70.87 74.96 68.95 77.37 68.61 L 161.81 68.61 C 164.59 68.5 166.97 70.54 167.22 73.23 L 167.13 131.49 C 166.57 133.95 164.39 135.73 161.81 135.84 L 132.21 135.84 L 130.88 141.11 C 130.57 142.32 130.78 143.61 131.46 144.67 C 132.14 145.74 133.23 146.49 134.49 146.75 C 137.35 147.7 140.38 148.11 143.41 147.95 L 148.91 147.95 L 148.91 153.5 L 87.33 153.5 L 87.33 147.95 L 93.88 147.95 C 97.31 147.97 100.71 147.41 103.94 146.29 C 106.47 145.69 108.04 143.21 107.45 140.74 L 106.59 135.84 Z M 79.93 128.99 L 159.91 128.99 L 159.91 75.73 L 79.93 75.73 Z" fill="#00bef2" stroke="none" pointer-events="all" style="fill: rgb(0, 190, 242);"/></g></g><g data-cell-id="FVi2bNsRIhQWAcT6SHi--2"><g transform="translate(0.5,0.5)"><rect x="56.31" y="285.56" width="127.38" height="90.44" fill="none" stroke="none" pointer-events="all"/><path d="M 56.31 285.56 L 56.31 287.56 L 56.31 376 L 183.69 376 L 183.69 285.56 Z M 60.3 289.57 L 179.7 289.57 L 179.7 304.03 L 60.3 304.03 Z M 172.9 293.08 C 170.91 293.08 169.3 294.7 169.3 296.69 C 169.3 297.65 169.68 298.57 170.36 299.25 C 171.03 299.93 171.94 300.31 172.9 300.31 C 173.85 300.31 174.77 299.93 175.44 299.25 C 176.12 298.57 176.5 297.65 176.5 296.69 C 176.5 295.73 176.12 294.81 175.44 294.14 C 174.77 293.46 173.85 293.08 172.9 293.08 Z M 160.6 293.11 C 158.61 293.11 157 294.72 157 296.72 C 157 297.68 157.38 298.6 158.06 299.28 C 158.73 299.96 159.64 300.34 160.6 300.34 C 161.55 300.34 162.47 299.96 163.14 299.28 C 163.82 298.6 164.2 297.68 164.2 296.72 C 164.2 295.76 163.82 294.84 163.14 294.16 C 162.47 293.49 161.55 293.11 160.6 293.11 Z M 148.35 293.12 C 147.4 293.12 146.49 293.5 145.81 294.18 C 145.14 294.86 144.76 295.78 144.76 296.74 C 144.76 297.7 145.14 298.62 145.81 299.3 C 146.49 299.97 147.4 300.35 148.35 300.35 C 149.31 300.35 150.22 299.97 150.9 299.3 C 151.57 298.62 151.95 297.7 151.95 296.74 C 151.95 294.74 150.34 293.12 148.35 293.12 Z M 60.3 308.04 L 179.7 308.04 L 179.7 371.99 L 60.3 371.99 Z M 108.85 322.8 L 115.43 348.26 L 121.96 341.68 L 136.54 356.43 L 142.28 350.72 L 127.61 335.96 L 134.12 329.47 Z" fill="#434445" stroke="none" pointer-events="all" style="fill: rgb(67, 68, 69);"/></g></g><g data-cell-id="FVi2bNsRIhQWAcT6SHi--4"><g transform="translate(0.5,0.5)"><path d="M 725.26 489 C 722.93 489 721.75 487.16 721.75 485.7 L 721.75 429.3 C 721.75 427.52 723.13 426 725.02 426 L 764.94 426 C 766.27 426 768.25 427.06 768.25 429.39 L 768.25 485.56 C 768.25 487.54 766.74 489 764.88 489 Z" fill="#7d7c7c" stroke="none" pointer-events="all" style="fill: rgb(125, 124, 124);"/><path d="M 768.25 482.84 L 768.25 485.56 C 768.25 487.54 766.74 489 764.88 489 L 725.26 489 C 722.93 489 721.75 487.16 721.75 485.7 L 721.75 482.96 C 721.75 484.59 723.08 486.19 725.09 486.19 L 764.77 486.19 C 766.53 486.19 768.25 484.86 768.25 482.84 Z" fill-opacity="0.3" fill="#000000" stroke="none" pointer-events="all" style="fill: rgb(0, 0, 0);"/><rect x="721.75" y="426" width="0" height="0" fill="none" stroke="#000000" pointer-events="all" style="stroke: light-dark(rgb(0, 0, 0), rgb(255, 255, 255));"/><path d="M 760.93 438.54 L 728.95 438.54 L 728.95 434.85 L 760.93 434.85 Z M 760.93 445 L 728.95 445 L 728.95 441.29 L 760.93 441.29 Z M 760.93 451.44 L 728.95 451.44 L 728.95 447.75 L 760.93 447.75 Z" fill="#ffffff" stroke="none" pointer-events="all" style="fill: rgb(255, 255, 255);"/></g></g><g data-cell-id="FVi2bNsRIhQWAcT6SHi--5"><g transform="translate(0.5,0.5)"><path d="M 725.26 626 C 722.93 626 721.75 624.16 721.75 622.7 L 721.75 566.3 C 721.75 564.52 723.13 563 725.02 563 L 764.94 563 C 766.27 563 768.25 564.06 768.25 566.39 L 768.25 622.56 C 768.25 624.54 766.74 626 764.88 626 Z" fill="#7d7c7c" stroke="none" pointer-events="all" style="fill: rgb(125, 124, 124);"/><path d="M 768.25 619.84 L 768.25 622.56 C 768.25 624.54 766.74 626 764.88 626 L 725.26 626 C 722.93 626 721.75 624.16 721.75 622.7 L 721.75 619.96 C 721.75 621.59 723.08 623.19 725.09 623.19 L 764.77 623.19 C 766.53 623.19 768.25 621.86 768.25 619.84 Z" fill-opacity="0.3" fill="#000000" stroke="none" pointer-events="all" style="fill: rgb(0, 0, 0);"/><rect x="721.75" y="563" width="0" height="0" fill="none" stroke="#000000" pointer-events="all" style="stroke: light-dark(rgb(0, 0, 0), rgb(255, 255, 255));"/><path d="M 760.93 575.54 L 728.95 575.54 L 728.95 571.85 L 760.93 571.85 Z M 760.93 582 L 728.95 582 L 728.95 578.29 L 760.93 578.29 Z M 760.93 588.44 L 728.95 588.44 L 728.95 584.75 L 760.93 584.75 Z" fill="#ffffff" stroke="none" pointer-events="all" style="fill: rgb(255, 255, 255);"/></g></g></g></g></g></svg>