<?xml version="1.0" encoding="UTF-8"?>
<!DOCTYPE svg PUBLIC "-//W3C//DTD SVG 1.1//EN" "http://www.w3.org/Graphics/SVG/1.1/DTD/svg11.dtd">
<svg xmlns="http://www.w3.org/2000/svg" style="background: transparent; background-color: transparent; color-scheme: light dark;" xmlns:xlink="http://www.w3.org/1999/xlink" version="1.1" width="771px" height="621px" viewBox="0 0 771 621"><defs/><g><g data-cell-id="G04mcS0BRjxAdhaUvR_R-0"><g data-cell-id="G04mcS0BRjxAdhaUvR_R-1"><g data-cell-id="G04mcS0BRjxAdhaUvR_R-2"><g transform="translate(0.5,0.5)"><rect x="331" y="30" width="200" height="590" rx="30" ry="30" fill="#dae8fc" stroke="#6c8ebf" pointer-events="all" style="fill: rgb(218, 232, 252); stroke: rgb(108, 142, 191);"/></g></g><g data-cell-id="G04mcS0BRjxAdhaUvR_R-3"><g transform="translate(0.5,0.5)"><rect x="95" y="230" width="110" height="30" fill="none" stroke="none" pointer-events="all"/></g><g><g><switch><foreignObject style="overflow: visible; text-align: left;" pointer-events="none" width="100%" height="100%" requiredFeatures="http://www.w3.org/TR/SVG11/feature#Extensibility"><div xmlns="http://www.w3.org/1999/xhtml" style="display: flex; align-items: unsafe center; justify-content: unsafe center; width: 108px; height: 1px; padding-top: 245px; margin-left: 96px;"><div style="box-sizing: border-box; font-size: 0; text-align: center; color: #000000; "><div style="display: inline-block; font-size: 21px; font-family: Helvetica; color: light-dark(#000000, #ffffff); line-height: 1.2; pointer-events: all; white-space: normal; word-wrap: normal; ">ブラウザ</div></div></div></foreignObject><text x="150" y="251" fill="light-dark(#000000, #ffffff)" font-family="Helvetica" font-size="21px" text-anchor="middle">ブラウザ</text></switch></g></g></g><g data-cell-id="G04mcS0BRjxAdhaUvR_R-4"><g transform="translate(0.5,0.5)"><rect x="355" y="280" width="156" height="90" rx="13.5" ry="13.5" fill="#1ba1e2" stroke="#006eaf" pointer-events="all" style="fill: rgb(27, 161, 226); stroke: rgb(0, 110, 175);"/></g><g><g><switch><foreignObject style="overflow: visible; text-align: left;" pointer-events="none" width="100%" height="100%" requiredFeatures="http://www.w3.org/TR/SVG11/feature#Extensibility"><div xmlns="http://www.w3.org/1999/xhtml" style="display: flex; align-items: unsafe center; justify-content: unsafe center; width: 154px; height: 1px; padding-top: 325px; margin-left: 356px;"><div style="box-sizing: border-box; font-size: 0; text-align: center; color: #ffffff; "><div style="display: inline-block; font-size: 12px; font-family: Helvetica; color: #ffffff; line-height: 1.2; pointer-events: all; white-space: normal; word-wrap: normal; ">OpenID Connect</div></div></div></foreignObject><text x="433" y="329" fill="#ffffff" font-family="Helvetica" font-size="12px" text-anchor="middle">OpenID Connect</text></switch></g></g></g><g data-cell-id="G04mcS0BRjxAdhaUvR_R-5"><g transform="translate(0.5,0.5)"><rect x="355" y="50" width="156" height="220" rx="18.72" ry="18.72" fill="#1ba1e2" stroke="#006eaf" pointer-events="all" style="fill: rgb(27, 161, 226); stroke: rgb(0, 110, 175);"/></g><g><g><switch><foreignObject style="overflow: visible; text-align: left;" pointer-events="none" width="100%" height="100%" requiredFeatures="http://www.w3.org/TR/SVG11/feature#Extensibility"><div xmlns="http://www.w3.org/1999/xhtml" style="display: flex; align-items: unsafe flex-start; justify-content: unsafe center; width: 154px; height: 1px; padding-top: 57px; margin-left: 356px;"><div style="box-sizing: border-box; font-size: 0; text-align: center; color: #ffffff; "><div style="display: inline-block; font-size: 12px; font-family: Helvetica; color: #ffffff; line-height: 1.2; pointer-events: all; white-space: normal; word-wrap: normal; ">コンソール</div></div></div></foreignObject><text x="433" y="69" fill="#ffffff" font-family="Helvetica" font-size="12px" text-anchor="middle">コンソール</text></switch></g></g></g><g data-cell-id="G04mcS0BRjxAdhaUvR_R-6"><g transform="translate(0.5,0.5)"><path d="M 501 117.5 L 565 117.5 L 565 302.5 L 517.37 302.5" fill="none" stroke="#000000" stroke-miterlimit="10" pointer-events="stroke" style="stroke: light-dark(rgb(0, 0, 0), rgb(255, 255, 255));"/><path d="M 512.12 302.5 L 519.12 299 L 517.37 302.5 L 519.12 306 Z" fill="#000000" stroke="#000000" stroke-miterlimit="10" pointer-events="all" style="fill: light-dark(rgb(0, 0, 0), rgb(255, 255, 255)); stroke: light-dark(rgb(0, 0, 0), rgb(255, 255, 255));"/></g><g data-cell-id="G04mcS0BRjxAdhaUvR_R-7"><g><g><switch><foreignObject style="overflow: visible; text-align: left;" pointer-events="none" width="100%" height="100%" requiredFeatures="http://www.w3.org/TR/SVG11/feature#Extensibility"><div xmlns="http://www.w3.org/1999/xhtml" style="display: flex; align-items: unsafe center; justify-content: unsafe center; width: 1px; height: 1px; padding-top: 169px; margin-left: 565px;"><div style="box-sizing: border-box; font-size: 0; text-align: center; color: #000000; background-color: #ffffff; "><div style="display: inline-block; font-size: 11px; font-family: Helvetica; color: light-dark(#000000, #ffffff); line-height: 1.2; pointer-events: all; background-color: light-dark(#ffffff, var(--ge-dark-color, #121212)); white-space: nowrap; ">HTTPS<div>証明書</div></div></div></div></foreignObject><text x="565" y="172" fill="light-dark(#000000, #ffffff)" font-family="Helvetica" font-size="11px" text-anchor="middle">HTTPS...</text></switch></g></g></g></g><g data-cell-id="G04mcS0BRjxAdhaUvR_R-8"><g transform="translate(0.5,0.5)"><path d="M 370 105 L 151.37 105" fill="none" stroke="#000000" stroke-miterlimit="10" pointer-events="stroke" style="stroke: light-dark(rgb(0, 0, 0), rgb(255, 255, 255));"/><path d="M 146.12 105 L 153.12 101.5 L 151.37 105 L 153.12 108.5 Z" fill="#000000" stroke="#000000" stroke-miterlimit="10" pointer-events="all" style="fill: light-dark(rgb(0, 0, 0), rgb(255, 255, 255)); stroke: light-dark(rgb(0, 0, 0), rgb(255, 255, 255));"/></g></g><g data-cell-id="G04mcS0BRjxAdhaUvR_R-9"><g transform="translate(0.5,0.5)"><rect x="370" y="80" width="131" height="50" fill="#0050ef" stroke="#001dbc" pointer-events="all" style="fill: rgb(0, 80, 239); stroke: rgb(0, 29, 188);"/></g><g><g><switch><foreignObject style="overflow: visible; text-align: left;" pointer-events="none" width="100%" height="100%" requiredFeatures="http://www.w3.org/TR/SVG11/feature#Extensibility"><div xmlns="http://www.w3.org/1999/xhtml" style="display: flex; align-items: unsafe center; justify-content: unsafe center; width: 129px; height: 1px; padding-top: 105px; margin-left: 371px;"><div style="box-sizing: border-box; font-size: 0; text-align: center; color: #ffffff; "><div style="display: inline-block; font-size: 12px; font-family: Helvetica; color: #ffffff; line-height: 1.2; pointer-events: all; white-space: normal; word-wrap: normal; ">認証局</div></div></div></foreignObject><text x="436" y="109" fill="#ffffff" font-family="Helvetica" font-size="12px" text-anchor="middle">認証局</text></switch></g></g></g><g data-cell-id="G04mcS0BRjxAdhaUvR_R-10"><g transform="translate(0.5,0.5)"><rect x="370" y="140" width="131" height="50" fill="#0050ef" stroke="#001dbc" pointer-events="all" style="fill: rgb(0, 80, 239); stroke: rgb(0, 29, 188);"/></g><g><g><switch><foreignObject style="overflow: visible; text-align: left;" pointer-events="none" width="100%" height="100%" requiredFeatures="http://www.w3.org/TR/SVG11/feature#Extensibility"><div xmlns="http://www.w3.org/1999/xhtml" style="display: flex; align-items: unsafe center; justify-content: unsafe center; width: 129px; height: 1px; padding-top: 165px; margin-left: 371px;"><div style="box-sizing: border-box; font-size: 0; text-align: center; color: #ffffff; "><div style="display: inline-block; font-size: 12px; font-family: Helvetica; color: #ffffff; line-height: 1.2; pointer-events: all; white-space: normal; word-wrap: normal; ">設定ビューア</div></div></div></foreignObject><text x="436" y="169" fill="#ffffff" font-family="Helvetica" font-size="12px" text-anchor="middle">設定ビューア</text></switch></g></g></g><g data-cell-id="G04mcS0BRjxAdhaUvR_R-11"><g transform="translate(0.5,0.5)"><rect x="370" y="200" width="131" height="50" fill="#0050ef" stroke="#001dbc" pointer-events="all" style="fill: rgb(0, 80, 239); stroke: rgb(0, 29, 188);"/></g><g><g><switch><foreignObject style="overflow: visible; text-align: left;" pointer-events="none" width="100%" height="100%" requiredFeatures="http://www.w3.org/TR/SVG11/feature#Extensibility"><div xmlns="http://www.w3.org/1999/xhtml" style="display: flex; align-items: unsafe center; justify-content: unsafe center; width: 129px; height: 1px; padding-top: 225px; margin-left: 371px;"><div style="box-sizing: border-box; font-size: 0; text-align: center; color: #ffffff; "><div style="display: inline-block; font-size: 12px; font-family: Helvetica; color: #ffffff; line-height: 1.2; pointer-events: all; white-space: normal; word-wrap: normal; ">リバースプロキシ<div>ログビュー・リプレイ</div></div></div></div></foreignObject><text x="436" y="229" fill="#ffffff" font-family="Helvetica" font-size="12px" text-anchor="middle">リバースプロキシ&#xa;ログビュー・リプレイ</text></switch></g></g></g><g data-cell-id="G04mcS0BRjxAdhaUvR_R-12"><g transform="translate(0.5,0.5)"><path d="M 165 325 L 268.63 325" fill="none" stroke="#000000" stroke-miterlimit="10" stroke-dasharray="8 8" pointer-events="stroke" style="stroke: light-dark(rgb(0, 0, 0), rgb(255, 255, 255));"/><path d="M 273.88 325 L 266.88 328.5 L 268.63 325 L 266.88 321.5 Z" fill="#000000" stroke="#000000" stroke-miterlimit="10" pointer-events="all" style="fill: light-dark(rgb(0, 0, 0), rgb(255, 255, 255)); stroke: light-dark(rgb(0, 0, 0), rgb(255, 255, 255));"/></g></g><g data-cell-id="G04mcS0BRjxAdhaUvR_R-13"><g transform="translate(0.5,0.5)"><path d="M 165 295 L 235 295 L 235 160 L 268.63 160" fill="none" stroke="#000000" stroke-miterlimit="10" stroke-dasharray="8 8" pointer-events="stroke" style="stroke: light-dark(rgb(0, 0, 0), rgb(255, 255, 255));"/><path d="M 273.88 160 L 266.88 163.5 L 268.63 160 L 266.88 156.5 Z" fill="#000000" stroke="#000000" stroke-miterlimit="10" pointer-events="all" style="fill: light-dark(rgb(0, 0, 0), rgb(255, 255, 255)); stroke: light-dark(rgb(0, 0, 0), rgb(255, 255, 255));"/></g></g><g data-cell-id="G04mcS0BRjxAdhaUvR_R-17"><g transform="translate(0.5,0.5)"><rect x="375" y="0" width="110" height="30" fill="none" stroke="none" pointer-events="all"/></g><g><g><switch><foreignObject style="overflow: visible; text-align: left;" pointer-events="none" width="100%" height="100%" requiredFeatures="http://www.w3.org/TR/SVG11/feature#Extensibility"><div xmlns="http://www.w3.org/1999/xhtml" style="display: flex; align-items: unsafe center; justify-content: unsafe center; width: 108px; height: 1px; padding-top: 15px; margin-left: 376px;"><div style="box-sizing: border-box; font-size: 0; text-align: center; color: #000000; "><div style="display: inline-block; font-size: 21px; font-family: Helvetica; color: light-dark(#000000, #ffffff); line-height: 1.2; pointer-events: all; white-space: normal; word-wrap: normal; ">OIDCLD</div></div></div></foreignObject><text x="430" y="21" fill="light-dark(#000000, #ffffff)" font-family="Helvetica" font-size="21px" text-anchor="middle">OIDCLD</text></switch></g></g></g><g data-cell-id="G04mcS0BRjxAdhaUvR_R-18"><g transform="translate(0.5,0.5)"><path d="M 511 435 L 635 435 L 635 225 L 568 225 C 568 221.1 562 221.1 562 225 L 562 225 L 507.37 225" fill="none" stroke="#000000" stroke-miterlimit="10" pointer-events="stroke" style="stroke: light-dark(rgb(0, 0, 0), rgb(255, 255, 255));"/><path d="M 502.12 225 L 509.12 221.5 L 507.37 225 L 509.12 228.5 Z" fill="#000000" stroke="#000000" stroke-miterlimit="10" pointer-events="all" style="fill: light-dark(rgb(0, 0, 0), rgb(255, 255, 255)); stroke: light-dark(rgb(0, 0, 0), rgb(255, 255, 255));"/></g><g data-cell-id="G04mcS0BRjxAdhaUvR_R-19"><g><g><switch><foreignObject style="overflow: visible; text-align: left;" pointer-events="none" width="100%" height="100%" requiredFeatures="http://www.w3.org/TR/SVG11/feature#Extensibility"><div xmlns="http://www.w3.org/1999/xhtml" style="display: flex; align-items: unsafe center; justify-content: unsafe center; width: 1px; height: 1px; padding-top: 345px; margin-left: 646px;"><div style="box-sizing: border-box; font-size: 0; text-align: center; color: #000000; background-color: #ffffff; "><div style="display: inline-block; font-size: 11px; font-family: Helvetica; color: light-dark(#000000, #ffffff); line-height: 1.2; pointer-events: all; background-color: light-dark(#ffffff, var(--ge-dark-color, #121212)); white-space: nowrap; ">アクセスログ</div></div></div></foreignObject><text x="646" y="348" fill="light-dark(#000000, #ffffff)" font-family="Helvetica" font-size="11px" text-anchor="middle">アクセスログ</text></switch></g></g></g></g><g data-cell-id="G04mcS0BRjxAdhaUvR_R-20"><g transform="translate(0.5,0.5)"><rect x="355" y="380" width="156" height="220" rx="17.16" ry="17.16" fill="#1ba1e2" stroke="#006eaf" pointer-events="all" style="fill: rgb(27, 161, 226); stroke: rgb(0, 110, 175);"/></g><g><g><switch><foreignObject style="overflow: visible; text-align: left;" pointer-events="none" width="100%" height="100%" requiredFeatures="http://www.w3.org/TR/SVG11/feature#Extensibility"><div xmlns="http://www.w3.org/1999/xhtml" style="display: flex; align-items: unsafe flex-start; justify-content: unsafe center; width: 154px; height: 1px; padding-top: 387px; margin-left: 356px;"><div style="box-sizing: border-box; font-size: 0; text-align: center; color: #ffffff; "><div style="display: inline-block; font-size: 12px; font-family: Helvetica; color: #ffffff; line-height: 1.2; pointer-events: all; white-space: normal; word-wrap: normal; ">リバースプロキシ</div></div></div></foreignObject><text x="433" y="399" fill="#ffffff" font-family="Helvetica" font-size="12px" text-anchor="middle">リバースプロキシ</text></switch></g></g></g><g data-cell-id="G04mcS0BRjxAdhaUvR_R-21"><g transform="translate(0.5,0.5)"><ellipse cx="285" cy="160" rx="10" ry="10" fill="#ffffff" stroke="#000000" pointer-events="all" style="fill: light-dark(#ffffff, var(--ge-dark-color, #121212)); stroke: light-dark(rgb(0, 0, 0), rgb(255, 255, 255));"/></g></g><g data-cell-id="G04mcS0BRjxAdhaUvR_R-22"><g transform="translate(0.5,0.5)"><path d="M 295 160 L 355 160" fill="none" stroke="#000000" stroke-miterlimit="10" pointer-events="stroke" style="stroke: light-dark(rgb(0, 0, 0), rgb(255, 255, 255));"/></g></g><g data-cell-id="G04mcS0BRjxAdhaUvR_R-23"><g transform="translate(0.5,0.5)"><ellipse cx="285" cy="490" rx="10" ry="10" fill="#ffffff" stroke="#000000" pointer-events="all" style="fill: light-dark(#ffffff, var(--ge-dark-color, #121212)); stroke: light-dark(rgb(0, 0, 0), rgb(255, 255, 255));"/></g></g><g data-cell-id="G04mcS0BRjxAdhaUvR_R-24"><g transform="translate(0.5,0.5)"><path d="M 295 490 L 355 490" fill="none" stroke="#000000" stroke-miterlimit="10" pointer-events="stroke" style="stroke: light-dark(rgb(0, 0, 0), rgb(255, 255, 255));"/></g></g><g data-cell-id="G04mcS0BRjxAdhaUvR_R-25"><g transform="translate(0.5,0.5)"><ellipse cx="285" cy="325" rx="10" ry="10" fill="#ffffff" stroke="#000000" pointer-events="all" style="fill: light-dark(#ffffff, var(--ge-dark-color, #121212)); stroke: light-dark(rgb(0, 0, 0), rgb(255, 255, 255));"/></g></g><g data-cell-id="G04mcS0BRjxAdhaUvR_R-26"><g transform="translate(0.5,0.5)"><path d="M 295 325 L 355 325" fill="none" stroke="#000000" stroke-miterlimit="10" pointer-events="stroke" style="stroke: light-dark(rgb(0, 0, 0), rgb(255, 255, 255));"/></g></g><g data-cell-id="G04mcS0BRjxAdhaUvR_R-27"><g><path d="M 295 470 L 294.38 340" fill="none" stroke="#000000" stroke-width="2" stroke-miterlimit="10" stroke-dasharray="2 6" pointer-events="stroke" style="stroke: light-dark(rgb(0, 0, 0), rgb(255, 255, 255));"/></g></g><g data-cell-id="G04mcS0BRjxAdhaUvR_R-28"><g transform="translate(0.5,0.5)"><rect x="245" y="390" width="80" height="40" fill="#ffffff" stroke="none" pointer-events="all" style="fill: light-dark(#ffffff, var(--ge-dark-color, #121212));"/></g><g><g><switch><foreignObject style="overflow: visible; text-align: left;" pointer-events="none" width="100%" height="100%" requiredFeatures="http://www.w3.org/TR/SVG11/feature#Extensibility"><div xmlns="http://www.w3.org/1999/xhtml" style="display: flex; align-items: unsafe center; justify-content: unsafe center; width: 78px; height: 1px; padding-top: 410px; margin-left: 246px;"><div style="box-sizing: border-box; font-size: 0; text-align: center; color: #000000; "><div style="display: inline-block; font-size: 12px; font-family: Helvetica; color: light-dark(#000000, #ffffff); line-height: 1.2; pointer-events: all; white-space: normal; word-wrap: normal; ">Share Port<div>or</div><div>Separate Port</div></div></div></div></foreignObject><text x="285" y="414" fill="light-dark(#000000, #ffffff)" font-family="Helvetica" font-size="12px" text-anchor="middle">Share Port...</text></switch></g></g></g><g data-cell-id="G04mcS0BRjxAdhaUvR_R-29"><g transform="translate(0.5,0.5)"><rect x="255" y="120" width="60" height="30" fill="none" stroke="none" pointer-events="all"/></g><g><g><switch><foreignObject style="overflow: visible; text-align: left;" pointer-events="none" width="100%" height="100%" requiredFeatures="http://www.w3.org/TR/SVG11/feature#Extensibility"><div xmlns="http://www.w3.org/1999/xhtml" style="display: flex; align-items: unsafe center; justify-content: unsafe center; width: 58px; height: 1px; padding-top: 135px; margin-left: 256px;"><div style="box-sizing: border-box; font-size: 0; text-align: center; color: #000000; "><div style="display: inline-block; font-size: 12px; font-family: Helvetica; color: light-dark(#000000, #ffffff); line-height: 1.2; pointer-events: all; white-space: normal; word-wrap: normal; ">HTTP</div></div></div></foreignObject><text x="285" y="139" fill="light-dark(#000000, #ffffff)" font-family="Helvetica" font-size="12px" text-anchor="middle">HTTP</text></switch></g></g></g><g data-cell-id="G04mcS0BRjxAdhaUvR_R-30"><g transform="translate(0.5,0.5)"><rect x="255" y="285" width="60" height="30" fill="none" stroke="none" pointer-events="all"/></g><g><g><switch><foreignObject style="overflow: visible; text-align: left;" pointer-events="none" width="100%" height="100%" requiredFeatures="http://www.w3.org/TR/SVG11/feature#Extensibility"><div xmlns="http://www.w3.org/1999/xhtml" style="display: flex; align-items: unsafe center; justify-content: unsafe center; width: 58px; height: 1px; padding-top: 300px; margin-left: 256px;"><div style="box-sizing: border-box; font-size: 0; text-align: center; color: #000000; "><div style="display: inline-block; font-size: 12px; font-family: Helvetica; color: light-dark(#000000, #ffffff); line-height: 1.2; pointer-events: all; white-space: normal; word-wrap: normal; ">HTTP or HTTPS</div></div></div></foreignObject><text x="285" y="304" fill="light-dark(#000000, #ffffff)" font-family="Helvetica" font-size="12px" text-anchor="middle">HTTP or HT...</text></switch></g></g></g><g data-cell-id="G04mcS0BRjxAdhaUvR_R-31"><g transform="translate(0.5,0.5)"><rect x="255" y="510" width="60" height="30" fill="none" stroke="none" pointer-events="all"/></g><g><g><switch><foreignObject style="overflow: visible; text-align: left;" pointer-events="none" width="100%" height="100%" requiredFeatures="http://www.w3.org/TR/SVG11/feature#Extensibility"><div xmlns="http://www.w3.org/1999/xhtml" style="display: flex; align-items: unsafe center; justify-content: unsafe center; width: 58px; height: 1px; padding-top: 525px; margin-left: 256px;"><div style="box-sizing: border-box; font-size: 0; text-align: center; color: #000000; "><div style="display: inline-block; font-size: 12px; font-family: Helvetica; color: light-dark(#000000, #ffffff); line-height: 1.2; pointer-events: all; white-space: normal; word-wrap: normal; ">HTTP or HTTPS</div></div></div></foreignObject><text x="285" y="529" fill="light-dark(#000000, #ffffff)" font-family="Helvetica" font-size="12px" text-anchor="middle">HTTP or HT...</text></switch></g></g></g><g data-cell-id="G04mcS0BRjxAdhaUvR_R-32"><g transform="translate(0.5,0.5)"><path d="M 501 92.5 L 605 92.5 L 605 222 C 608.9 222 608.9 228 605 228 L 605 228 L 605 419.2 L 516.59 419.16" fill="none" stroke="#000000" stroke-miterlimit="10" pointer-events="stroke" style="stroke: light-dark(rgb(0, 0, 0), rgb(255, 255, 255));"/><path d="M 511.34 419.16 L 518.34 415.66 L 516.59 419.16 L 518.34 422.66 Z" fill="#000000" stroke="#000000" stroke-miterlimit="10" pointer-events="all" style="fill: light-dark(rgb(0, 0, 0), rgb(255, 255, 255)); stroke: light-dark(rgb(0, 0, 0), rgb(255, 255, 255));"/></g><g data-cell-id="G04mcS0BRjxAdhaUvR_R-33"><g><g><switch><foreignObject style="overflow: visible; text-align: left;" pointer-events="none" width="100%" height="100%" requiredFeatures="http://www.w3.org/TR/SVG11/feature#Extensibility"><div xmlns="http://www.w3.org/1999/xhtml" style="display: flex; align-items: unsafe center; justify-content: unsafe center; width: 1px; height: 1px; padding-top: 206px; margin-left: 616px;"><div style="box-sizing: border-box; font-size: 0; text-align: center; color: #000000; background-color: #ffffff; "><div style="display: inline-block; font-size: 11px; font-family: Helvetica; color: light-dark(#000000, #ffffff); line-height: 1.2; pointer-events: all; background-color: light-dark(#ffffff, var(--ge-dark-color, #121212)); white-space: nowrap; ">HTTPS<div>証明書</div></div></div></div></foreignObject><text x="616" y="209" fill="light-dark(#000000, #ffffff)" font-family="Helvetica" font-size="11px" text-anchor="middle">HTTPS...</text></switch></g></g></g></g><g data-cell-id="G04mcS0BRjxAdhaUvR_R-34"><g transform="translate(0.5,0.5)"><path d="M 165 355 L 235 355 L 235 490 L 268.63 490" fill="none" stroke="#000000" stroke-miterlimit="10" stroke-dasharray="8 8" pointer-events="stroke" style="stroke: light-dark(rgb(0, 0, 0), rgb(255, 255, 255));"/><path d="M 273.88 490 L 266.88 493.5 L 268.63 490 L 266.88 486.5 Z" fill="#000000" stroke="#000000" stroke-miterlimit="10" pointer-events="all" style="fill: light-dark(rgb(0, 0, 0), rgb(255, 255, 255)); stroke: light-dark(rgb(0, 0, 0), rgb(255, 255, 255));"/></g></g><g data-cell-id="G04mcS0BRjxAdhaUvR_R-37"><g transform="translate(0.5,0.5)"><rect x="685" y="380" width="86" height="30" fill="none" stroke="none" pointer-events="all"/></g><g><g><switch><foreignObject style="overflow: visible; text-align: left;" pointer-events="none" width="100%" height="100%" requiredFeatures="http://www.w3.org/TR/SVG11/feature#Extensibility"><div xmlns="http://www.w3.org/1999/xhtml" style="display: flex; align-items: unsafe center; justify-content: unsafe center; width: 84px; height: 1px; padding-top: 395px; margin-left: 686px;"><div style="box-sizing: border-box; font-size: 0; text-align: center; color: #000000; "><div style="display: inline-block; font-size: 12px; font-family: Helvetica; color: light-dark(#000000, #ffffff); line-height: 1.2; pointer-events: all; white-space: normal; word-wrap: normal; "><div>フロントエンド</div><div>開発サーバー</div></div></div></div></foreignObject><text x="728" y="399" fill="light-dark(#000000, #ffffff)" font-family="Helvetica" font-size="12px" text-anchor="middle">フロントエンド&#xa;開発サーバー</text></switch></g></g></g><g data-cell-id="G04mcS0BRjxAdhaUvR_R-38"><g transform="translate(0.5,0.5)"><rect x="685" y="520" width="80" height="30" fill="none" stroke="none" pointer-events="all"/></g><g><g><switch><foreignObject style="overflow: visible; text-align: left;" pointer-events="none" width="100%" height="100%" requiredFeatures="http://www.w3.org/TR/SVG11/feature#Extensibility"><div xmlns="http://www.w3.org/1999/xhtml" style="display: flex; align-items: unsafe center; justify-content: unsafe center; width: 78px; height: 1px; padding-top: 535px; margin-left: 686px;"><div style="box-sizing: border-box; font-size: 0; text-align: center; color: #000000; "><div style="display: inline-block; font-size: 12px; font-family: Helvetica; color: light-dark(#000000, #ffffff); line-height: 1.2; pointer-events: all; white-space: normal; word-wrap: normal; "><div>API</div>開発サーバー</div></div></div></foreignObject><text x="725" y="539" fill="light-dark(#000000, #ffffff)" font-family="Helvetica" font-size="12px" text-anchor="middle">API開発サーバー</text></switch></g></g></g><g data-cell-id="G04mcS0BRjxAdhaUvR_R-39"><g transform="translate(0.5,0.5)"><path d="M 501 460 L 601.4 460 L 601.4 588.5 L 695.38 588.5" fill="none" stroke="#000000" stroke-miterlimit="10" pointer-events="stroke" style="stroke: light-dark(rgb(0, 0, 0), rgb(255, 255, 255));"/><path d="M 700.63 588.5 L 693.63 592 L 695.38 588.5 L 693.63 585 Z" fill="#000000" stroke="#000000" stroke-miterlimit="10" pointer-events="all" style="fill: light-dark(rgb(0, 0, 0), rgb(255, 255, 255)); stroke: light-dark(rgb(0, 0, 0), rgb(255, 255, 255));"/></g></g><g data-cell-id="G04mcS0BRjxAdhaUvR_R-40"><g transform="translate(0.5,0.5)"><path d="M 501 450 L 695.38 450" fill="none" stroke="#000000" stroke-miterlimit="10" pointer-events="stroke" style="stroke: light-dark(rgb(0, 0, 0), rgb(255, 255, 255));"/><path d="M 700.63 450 L 693.63 453.5 L 695.38 450 L 693.63 446.5 Z" fill="#000000" stroke="#000000" stroke-miterlimit="10" pointer-events="all" style="fill: light-dark(rgb(0, 0, 0), rgb(255, 255, 255)); stroke: light-dark(rgb(0, 0, 0), rgb(255, 255, 255));"/></g></g><g data-cell-id="G04mcS0BRjxAdhaUvR_R-41"><g transform="translate(0.5,0.5)"><rect x="371" y="430" width="130" height="40" fill="#0050ef" stroke="#001dbc" pointer-events="all" style="fill: rgb(0, 80, 239); stroke: rgb(0, 29, 188);"/></g><g><g><switch><foreignObject style="overflow: visible; text-align: left;" pointer-events="none" width="100%" height="100%" requiredFeatures="http://www.w3.org/TR/SVG11/feature#Extensibility"><div xmlns="http://www.w3.org/1999/xhtml" style="display: flex; align-items: unsafe center; justify-content: unsafe center; width: 128px; height: 1px; padding-top: 450px; margin-left: 372px;"><div style="box-sizing: border-box; font-size: 0; text-align: center; color: #ffffff; "><div style="display: inline-block; font-size: 12px; font-family: Helvetica; color: #ffffff; line-height: 1.2; pointer-events: all; white-space: normal; word-wrap: normal; ">VirtualHost /<div>パスベースルータ</div></div></div></div></foreignObject><text x="436" y="454" fill="#ffffff" font-family="Helvetica" font-size="12px" text-anchor="middle">VirtualHost /...</text></switch></g></g></g><g data-cell-id="G04mcS0BRjxAdhaUvR_R-42"><g transform="translate(0.5,0.5)"><rect x="371" y="490" width="130" height="40" fill="#0050ef" stroke="#001dbc" pointer-events="all" style="fill: rgb(0, 80, 239); stroke: rgb(0, 29, 188);"/></g><g><g><switch><foreignObject style="overflow: visible; text-align: left;" pointer-events="none" width="100%" height="100%" requiredFeatures="http://www.w3.org/TR/SVG11/feature#Extensibility"><div xmlns="http://www.w3.org/1999/xhtml" style="display: flex; align-items: unsafe center; justify-content: unsafe center; width: 128px; height: 1px; padding-top: 510px; margin-left: 372px;"><div style="box-sizing: border-box; font-size: 0; text-align: center; color: #ffffff; "><div style="display: inline-block; font-size: 12px; font-family: Helvetica; color: #ffffff; line-height: 1.2; pointer-events: all; white-space: normal; word-wrap: normal; ">静的HTML<div>SPAホスティング</div></div></div></div></foreignObject><text x="436" y="514" fill="#ffffff" font-family="Helvetica" font-size="12px" text-anchor="middle">静的HTML...</text></switch></g></g></g><g data-cell-id="G04mcS0BRjxAdhaUvR_R-43"><g transform="translate(0.5,0.5)"><rect x="371" y="550" width="130" height="40" fill="#0050ef" stroke="#001dbc" pointer-events="all" style="fill: rgb(0, 80, 239); stroke: rgb(0, 29, 188);"/></g><g><g><switch><foreignObject style="overflow: visible; text-align: left;" pointer-events="none" width="100%" height="100%" requiredFeatures="http://www.w3.org/TR/SVG11/feature#Extensibility"><div xmlns="http://www.w3.org/1999/xhtml" style="display: flex; align-items: unsafe center; justify-content: unsafe center; width: 128px; height: 1px; padding-top: 570px; margin-left: 372px;"><div style="box-sizing: border-box; font-size: 0; text-align: center; color: #ffffff; "><div style="display: inline-block; font-size: 12px; font-family: Helvetica; color: #ffffff; line-height: 1.2; pointer-events: all; white-space: normal; word-wrap: normal; ">OpenAPIベース<div>モックサーバー</div></div></div></div></foreignObject><text x="436" y="574" fill="#ffffff" font-family="Helvetica" font-size="12px" text-anchor="middle">OpenAPIベース...</text></switch></g></g></g><g data-cell-id="G04mcS0BRjxAdhaUvR_R-45"><g transform="translate(0.5,0.5)"><rect x="45" y="30" width="110" height="30" fill="none" stroke="none" pointer-events="all"/></g><g><g><switch><foreignObject style="overflow: visible; text-align: left;" pointer-events="none" width="100%" height="100%" requiredFeatures="http://www.w3.org/TR/SVG11/feature#Extensibility"><div xmlns="http://www.w3.org/1999/xhtml" style="display: flex; align-items: unsafe center; justify-content: unsafe center; width: 108px; height: 1px; padding-top: 45px; margin-left: 46px;"><div style="box-sizing: border-box; font-size: 0; text-align: center; color: #000000; "><div style="display: inline-block; font-size: 21px; font-family: Helvetica; color: light-dark(#000000, #ffffff); line-height: 1.2; pointer-events: all; white-space: normal; word-wrap: normal; ">OS</div></div></div></foreignObject><text x="100" y="51" fill="light-dark(#000000, #ffffff)" font-family="Helvetica" font-size="21px" text-anchor="middle">OS</text></switch></g></g></g><g data-cell-id="G04mcS0BRjxAdhaUvR_R-46"><g transform="translate(0.5,0.5)"><rect x="207" y="40" width="48" height="56" fill="none" stroke="none" pointer-events="all"/><path d="M 237.01 64.97 L 216.75 64.97 L 216.75 62.7 L 237.01 62.7 Z M 237.01 71.03 L 216.75 71.03 L 216.75 68.76 L 237.01 68.76 Z M 236.35 77.08 L 216.75 77.08 L 216.75 74.81 L 236.35 74.81 Z M 241.36 87.68 L 207 87.68 L 207 40 L 234.75 40 L 246.75 52.11 L 246.75 65.73 L 244.51 65.73 L 244.51 54.38 L 233.26 54.38 L 233.26 42.27 L 209.25 42.27 L 209.25 85.41 L 239.1 85.41 Z M 246.76 89.95 L 238.55 81.62 L 238.55 77.08 L 244.51 83.14 L 244.51 68 L 249.01 68 L 249.01 83.09 L 255 77.09 L 255 81.62 Z M 254.26 96 L 239.26 96 L 239.26 92.22 L 254.26 92.22 Z" fill="#505050" stroke="none" pointer-events="all" style="fill: rgb(80, 80, 80);"/></g></g><g data-cell-id="G04mcS0BRjxAdhaUvR_R-47"><g transform="translate(0.5,0.5)"><rect x="155" y="10" width="130" height="30" fill="none" stroke="none" pointer-events="all"/></g><g><g><switch><foreignObject style="overflow: visible; text-align: left;" pointer-events="none" width="100%" height="100%" requiredFeatures="http://www.w3.org/TR/SVG11/feature#Extensibility"><div xmlns="http://www.w3.org/1999/xhtml" style="display: flex; align-items: unsafe center; justify-content: unsafe center; width: 128px; height: 1px; padding-top: 25px; margin-left: 156px;"><div style="box-sizing: border-box; font-size: 0; text-align: center; color: #000000; "><div style="display: inline-block; font-size: 12px; font-family: Helvetica; color: light-dark(#000000, #ffffff); line-height: 1.2; pointer-events: all; white-space: normal; word-wrap: normal; ">証明書のダウンロード<div>とインストール</div></div></div></div></foreignObject><text x="220" y="29" fill="light-dark(#000000, #ffffff)" font-family="Helvetica" font-size="12px" text-anchor="middle">証明書のダウンロード&#xa;とインストール</text></switch></g></g></g><g data-cell-id="G04mcS0BRjxAdhaUvR_R-48"><g><path d="M 655 570 L 655 470" fill="none" stroke="#000000" stroke-width="2" stroke-miterlimit="10" stroke-dasharray="2 6" pointer-events="stroke" style="stroke: light-dark(rgb(0, 0, 0), rgb(255, 255, 255));"/></g></g><g data-cell-id="A-tA7CM3yDwaZJZtmeEQ-0"><g transform="translate(0.5,0.5)"><rect x="52.78" y="62.5" width="94.44" height="85" fill="none" stroke="none" pointer-events="all"/><path d="M 57.18 129.65 C 55.92 129.54 54.76 128.93 53.96 127.98 C 53.16 127.02 52.78 125.79 52.91 124.57 L 52.91 67.23 C 53.11 64.87 54.96 62.95 57.37 62.61 L 141.81 62.61 C 144.59 62.5 146.97 64.54 147.22 67.23 L 147.13 125.49 C 146.57 127.95 144.39 129.73 141.81 129.84 L 112.21 129.84 L 110.88 135.11 C 110.57 136.32 110.78 137.61 111.46 138.67 C 112.14 139.74 113.23 140.49 114.49 140.75 C 117.35 141.7 120.38 142.11 123.41 141.95 L 128.91 141.95 L 128.91 147.5 L 67.33 147.5 L 67.33 141.95 L 73.88 141.95 C 77.31 141.97 80.71 141.41 83.94 140.29 C 86.47 139.69 88.04 137.21 87.45 134.74 L 86.59 129.84 Z M 59.93 122.99 L 139.91 122.99 L 139.91 69.73 L 59.93 69.73 Z" fill="#00bef2" stroke="none" pointer-events="all" style="fill: rgb(0, 190, 242);"/></g></g><g data-cell-id="A-tA7CM3yDwaZJZtmeEQ-1"><g transform="translate(0.5,0.5)"><rect x="36.31" y="279.56" width="127.38" height="90.44" fill="none" stroke="none" pointer-events="all"/><path d="M 36.31 279.56 L 36.31 281.56 L 36.31 370 L 163.69 370 L 163.69 279.56 Z M 40.3 283.57 L 159.7 283.57 L 159.7 298.03 L 40.3 298.03 Z M 152.9 287.08 C 150.91 287.08 149.3 288.7 149.3 290.69 C 149.3 291.65 149.68 292.57 150.36 293.25 C 151.03 293.93 151.94 294.31 152.9 294.31 C 153.85 294.31 154.77 293.93 155.44 293.25 C 156.12 292.57 156.5 291.65 156.5 290.69 C 156.5 289.73 156.12 288.81 155.44 288.14 C 154.77 287.46 153.85 287.08 152.9 287.08 Z M 140.6 287.11 C 138.61 287.11 137 288.72 137 290.72 C 137 291.68 137.38 292.6 138.06 293.28 C 138.73 293.96 139.64 294.34 140.6 294.34 C 141.55 294.34 142.47 293.96 143.14 293.28 C 143.82 292.6 144.2 291.68 144.2 290.72 C 144.2 289.76 143.82 288.84 143.14 288.16 C 142.47 287.49 141.55 287.11 140.6 287.11 Z M 128.35 287.12 C 127.4 287.12 126.49 287.5 125.81 288.18 C 125.14 288.86 124.76 289.78 124.76 290.74 C 124.76 291.7 125.14 292.62 125.81 293.3 C 126.49 293.97 127.4 294.35 128.35 294.35 C 129.31 294.35 130.22 293.97 130.9 293.3 C 131.57 292.62 131.95 291.7 131.95 290.74 C 131.95 288.74 130.34 287.12 128.35 287.12 Z M 40.3 302.04 L 159.7 302.04 L 159.7 365.99 L 40.3 365.99 Z M 88.85 316.8 L 95.43 342.26 L 101.96 335.68 L 116.54 350.43 L 122.28 344.72 L 107.61 329.96 L 114.12 323.47 Z" fill="#434445" stroke="none" pointer-events="all" style="fill: rgb(67, 68, 69);"/></g></g><g data-cell-id="A-tA7CM3yDwaZJZtmeEQ-2"><g transform="translate(0.5,0.5)"><path d="M 705.26 481.5 C 702.93 481.5 701.75 479.66 701.75 478.2 L 701.75 421.8 C 701.75 420.02 703.13 418.5 705.02 418.5 L 744.94 418.5 C 746.27 418.5 748.25 419.56 748.25 421.89 L 748.25 478.06 C 748.25 480.04 746.74 481.5 744.88 481.5 Z" fill="#7d7c7c" stroke="none" pointer-events="all" style="fill: rgb(125, 124, 124);"/><path d="M 748.25 475.34 L 748.25 478.06 C 748.25 480.04 746.74 481.5 744.88 481.5 L 705.26 481.5 C 702.93 481.5 701.75 479.66 701.75 478.2 L 701.75 475.46 C 701.75 477.09 703.08 478.69 705.09 478.69 L 744.77 478.69 C 746.53 478.69 748.25 477.36 748.25 475.34 Z" fill-opacity="0.3" fill="#000000" stroke="none" pointer-events="all" style="fill: rgb(0, 0, 0);"/><rect x="701.75" y="418.5" width="0" height="0" fill="none" stroke="#000000" pointer-events="all" style="stroke: light-dark(rgb(0, 0, 0), rgb(255, 255, 255));"/><path d="M 740.93 431.04 L 708.95 431.04 L 708.95 427.35 L 740.93 427.35 Z M 740.93 437.5 L 708.95 437.5 L 708.95 433.79 L 740.93 433.79 Z M 740.93 443.94 L 708.95 443.94 L 708.95 440.25 L 740.93 440.25 Z" fill="#ffffff" stroke="none" pointer-events="all" style="fill: rgb(255, 255, 255);"/></g></g><g data-cell-id="A-tA7CM3yDwaZJZtmeEQ-3"><g transform="translate(0.5,0.5)"><path d="M 705.26 620 C 702.93 620 701.75 618.16 701.75 616.7 L 701.75 560.3 C 701.75 558.52 703.13 557 705.02 557 L 744.94 557 C 746.27 557 748.25 558.06 748.25 560.39 L 748.25 616.56 C 748.25 618.54 746.74 620 744.88 620 Z" fill="#7d7c7c" stroke="none" pointer-events="all" style="fill: rgb(125, 124, 124);"/><path d="M 748.25 613.84 L 748.25 616.56 C 748.25 618.54 746.74 620 744.88 620 L 705.26 620 C 702.93 620 701.75 618.16 701.75 616.7 L 701.75 613.96 C 701.75 615.59 703.08 617.19 705.09 617.19 L 744.77 617.19 C 746.53 617.19 748.25 615.86 748.25 613.84 Z" fill-opacity="0.3" fill="#000000" stroke="none" pointer-events="all" style="fill: rgb(0, 0, 0);"/><rect x="701.75" y="557" width="0" height="0" fill="none" stroke="#000000" pointer-events="all" style="stroke: light-dark(rgb(0, 0, 0), rgb(255, 255, 255));"/><path d="M 740.93 569.54 L 708.95 569.54 L 708.95 565.85 L 740.93 565.85 Z M 740.93 576 L 708.95 576 L 708.95 572.29 L 740.93 572.29 Z M 740.93 582.44 L 708.95 582.44 L 708.95 578.75 L 740.93 578.75 Z" fill="#ffffff" stroke="none" pointer-events="all" style="fill: rgb(255, 255, 255);"/></g></g><g data-cell-id="4-akGzi_l0CFHmsZfZTm-0"><g transform="translate(0.5,0.5)"><path d="M 36.31 335 L 15 335 L 15 96 L 45.66 95.99" fill="none" stroke="#000000" stroke-miterlimit="10" pointer-events="stroke" style="stroke: light-dark(rgb(0, 0, 0), rgb(255, 255, 255));"/><path d="M 50.91 95.99 L 43.91 99.49 L 45.66 95.99 L 43.91 92.49 Z" fill="#000000" stroke="#000000" stroke-miterlimit="10" pointer-events="all" style="fill: light-dark(rgb(0, 0, 0), rgb(255, 255, 255)); stroke: light-dark(rgb(0, 0, 0), rgb(255, 255, 255));"/></g><g data-cell-id="4-akGzi_l0CFHmsZfZTm-1"><g><g><switch><foreignObject style="overflow: visible; text-align: left;" pointer-events="none" width="100%" height="100%" requiredFeatures="http://www.w3.org/TR/SVG11/feature#Extensibility"><div xmlns="http://www.w3.org/1999/xhtml" style="display: flex; align-items: unsafe center; justify-content: unsafe center; width: 1px; height: 1px; padding-top: 222px; margin-left: 17px;"><div style="box-sizing: border-box; font-size: 0; text-align: center; color: #000000; background-color: #ffffff; "><div style="display: inline-block; font-size: 11px; font-family: Helvetica; color: light-dark(#000000, #ffffff); line-height: 1.2; pointer-events: all; background-color: light-dark(#ffffff, var(--ge-dark-color, #121212)); white-space: nowrap; ">証明書<div>検証</div></div></div></div></foreignObject><text x="17" y="225" fill="light-dark(#000000, #ffffff)" font-family="Helvetica" font-size="11px" text-anchor="middle">証明書&#xa;検証</text></switch></g></g></g></g></g></g></g></svg>